<svg width="95" height="95" viewBox="0 0 95 95" fill="none" xmlns="http://www.w3.org/2000/svg">
<path d="M57.3997 36.3654L59.5887 34.1765L60.6376 33.1275C62.679 31.0856 63.8256 28.3164 63.8252 25.4291C63.8249 22.5418 62.6775 19.7729 60.6356 17.7316C58.5937 15.6902 55.8246 14.5436 52.9373 14.5439C50.05 14.5443 47.2811 15.6916 45.2397 17.7335L18.1528 44.8244C18.1264 44.8505 18.1054 44.8816 18.091 44.916C18.0767 44.9503 18.0693 44.9871 18.0693 45.0243C18.0693 45.0615 18.0767 45.0983 18.091 45.1326C18.1054 45.1669 18.1264 45.198 18.1528 45.2242L31.9476 59.019C32.3188 59.39 32.8221 59.5984 33.3469 59.5984C33.8717 59.5984 34.375 59.39 34.7462 59.019L42.0928 51.6723L44.2818 49.4833" stroke="#323131" stroke-width="2.875" stroke-linecap="round" stroke-linejoin="round"/>
<path d="M55.7373 12.8329L59.2365 9.33369C60.5356 8.03454 62.2976 7.30469 64.1349 7.30469C65.9722 7.30469 67.7342 8.03454 69.0333 9.33369C70.3325 10.6328 71.0623 12.3949 71.0623 14.2321C71.0623 16.0694 70.3325 17.8314 69.0333 19.1306L65.5342 22.6297L55.7373 12.8329Z" stroke="#323131" stroke-width="2.875" stroke-linecap="round" stroke-linejoin="round"/>
<path d="M20.7536 47.8203L12.3501 56.2159L22.147 66.0128L30.5466 57.6172L20.7536 47.8203Z" stroke="#323131" stroke-width="2.875" stroke-linecap="round" stroke-linejoin="round"/>
<path d="M45.2438 49.9228C46.0709 50.7498 47.0527 51.4058 48.1333 51.8534C49.2138 52.301 50.372 52.5314 51.5416 52.5314C52.7111 52.5314 53.8693 52.301 54.9499 51.8534C56.0304 51.4058 57.0122 50.7498 57.8393 49.9228C58.6663 49.0957 59.3223 48.1139 59.7699 47.0333C60.2175 45.9528 60.4479 44.7946 60.4479 43.6251C60.4479 42.4555 60.2175 41.2973 59.7699 40.2168C59.3223 39.1362 58.6663 38.1544 57.8393 37.3273C56.169 35.6571 53.9037 34.7188 51.5416 34.7188C49.1795 34.7188 46.9141 35.6571 45.2438 37.3273C43.5736 38.9976 42.6353 41.263 42.6353 43.6251C42.6353 45.9872 43.5736 48.2525 45.2438 49.9228Z" stroke="#323131" stroke-width="2.875" stroke-linecap="round" stroke-linejoin="round"/>
<path d="M11.875 39.583L37.0658 64.7738" stroke="#323131" stroke-width="2.875" stroke-linecap="round" stroke-linejoin="round"/>
<path d="M19.7915 87.083H83.1248" stroke="#323131" stroke-width="2.875" stroke-linecap="round" stroke-linejoin="round"/>
<path d="M61.354 43.542C69.2707 43.542 77.1873 51.4587 77.1873 63.3337C77.1873 76.0003 66.963 82.7968 61.354 87.0837" stroke="#323131" stroke-width="2.875" stroke-linecap="round" stroke-linejoin="round"/>
</svg>
