<svg width="102" height="102" viewBox="0 0 102 102" fill="none" xmlns="http://www.w3.org/2000/svg">
<path d="M36.125 14.875H21.25C20.1228 14.875 19.0418 15.3228 18.2448 16.1198C17.4478 16.9168 17 17.9978 17 19.125V89.25C17 90.3772 17.4478 91.4582 18.2448 92.2552C19.0418 93.0522 20.1228 93.5 21.25 93.5H80.75C81.8772 93.5 82.9582 93.0522 83.7552 92.2552C84.5522 91.4582 85 90.3772 85 89.25V19.125C85 17.9978 84.5522 16.9168 83.7552 16.1198C82.9582 15.3228 81.8772 14.875 80.75 14.875H65.875" stroke="#323131" stroke-width="2.875" stroke-linecap="round" stroke-linejoin="round"/>
<path d="M65.875 8.5H36.125V21.25H65.875V8.5Z" stroke="#323131" stroke-width="2.875" stroke-linecap="round" stroke-linejoin="round"/>
</svg>
