<svg width="108" height="108" viewBox="0 0 108 108" fill="none" xmlns="http://www.w3.org/2000/svg">
<path d="M30.375 88.5869C37.1075 93.888 45.431 96.764 54 96.7499C62.569 96.764 70.8925 93.888 77.625 88.5869" stroke="#323131" stroke-width="2.875" stroke-linecap="round" stroke-linejoin="round"/>
<path d="M42.7501 21.9331C37.8536 23.4408 33.3097 25.9164 29.3878 29.2131C25.466 32.5098 22.246 36.5604 19.9189 41.1248C17.5918 45.6892 16.205 50.6744 15.8406 55.7848C15.4762 60.8952 16.1417 66.0267 17.7976 70.8751" stroke="#323131" stroke-width="2.875" stroke-linecap="round" stroke-linejoin="round"/>
<path d="M65.25 21.9331C70.1465 23.4408 74.6904 25.9164 78.6123 29.2131C82.5341 32.5098 85.7541 36.5604 88.0812 41.1248C90.4083 45.6892 91.7951 50.6744 92.1595 55.7848C92.5239 60.8952 91.8584 66.0267 90.2025 70.8751" stroke="#323131" stroke-width="2.875" stroke-linecap="round" stroke-linejoin="round"/>
<path d="M96.75 81.0001C96.75 84.0151 95.562 86.7601 93.627 88.7806C91.82 90.6684 89.4122 91.8682 86.8169 92.1741C84.2216 92.48 81.6008 91.8729 79.4044 90.457C77.208 89.041 75.573 86.9046 74.7802 84.4145C73.9874 81.9244 74.0862 79.236 75.0596 76.8108C76.0331 74.3857 77.8204 72.375 80.1148 71.1241C82.4092 69.8732 85.0676 69.4601 87.6334 69.9556C90.1992 70.4512 92.5125 71.8245 94.1761 73.8399C95.8396 75.8552 96.7497 78.3868 96.75 81.0001Z" stroke="#323131" stroke-width="2.875" stroke-linecap="round" stroke-linejoin="round"/>
<path d="M33.75 81.0001C33.75 84.0151 32.562 86.7601 30.627 88.7806C28.82 90.6684 26.4122 91.8682 23.8169 92.1741C21.2216 92.48 18.6008 91.8729 16.4044 90.457C14.208 89.041 12.573 86.9046 11.7802 84.4145C10.9874 81.9244 11.0862 79.236 12.0596 76.8108C13.0331 74.3857 14.8204 72.375 17.1148 71.1241C19.4092 69.8732 22.0675 69.4601 24.6334 69.9556C27.1992 70.4512 29.5125 71.8245 31.176 73.8399C32.8396 75.8552 33.7497 78.3868 33.75 81.0001Z" stroke="#323131" stroke-width="2.875" stroke-linecap="round" stroke-linejoin="round"/>
<path d="M65.25 20.2501C65.25 23.2651 64.062 26.0101 62.127 28.0306C60.32 29.9184 57.9122 31.1182 55.3169 31.4241C52.7216 31.73 50.1008 31.1229 47.9044 29.707C45.708 28.291 44.073 26.1546 43.2802 23.6645C42.4874 21.1744 42.5862 18.486 43.5596 16.0608C44.5331 13.6357 46.3204 11.625 48.6148 10.3741C50.9092 9.1232 53.5676 8.71006 56.1334 9.20562C58.6992 9.70118 61.0125 11.0745 62.676 13.0899C64.3396 15.1052 65.2497 17.6368 65.25 20.2501Z" stroke="#323131" stroke-width="2.875" stroke-linecap="round" stroke-linejoin="round"/>
</svg>
