<svg width="26" height="26" viewBox="0 0 26 26" fill="none" xmlns="http://www.w3.org/2000/svg">
<path d="M11.3748 20.5834C13.817 20.5834 16.1592 19.6133 17.8861 17.8864C19.613 16.1595 20.5832 13.8173 20.5832 11.3751C20.5832 8.93288 19.613 6.5907 17.8861 4.86381C16.1592 3.13691 13.817 2.16675 11.3748 2.16675C8.93263 2.16675 6.59046 3.13691 4.86356 4.86381C3.13666 6.5907 2.1665 8.93288 2.1665 11.3751C2.1665 13.8173 3.13666 16.1595 4.86356 17.8864C6.59046 19.6133 8.93263 20.5834 11.3748 20.5834Z" stroke="#323131" stroke-width="2.875" stroke-linecap="round" stroke-linejoin="round"/>
<path d="M14.4389 7.76967C14.037 7.36668 13.5595 7.04706 13.0337 6.82917C12.5079 6.61128 11.9443 6.49941 11.3752 6.5C10.8061 6.49941 10.2424 6.61128 9.71668 6.82917C9.19092 7.04706 8.71339 7.36668 8.31152 7.76967" stroke="#323131" stroke-width="2.875" stroke-linecap="round" stroke-linejoin="round"/>
<path d="M17.9941 17.9954L22.5918 22.5919" stroke="#323131" stroke-width="2.875" stroke-linecap="round" stroke-linejoin="round"/>
</svg>
