<svg width="115" height="106" viewBox="0 0 115 106" fill="none" xmlns="http://www.w3.org/2000/svg">
<path d="M33.5415 30.9165C33.5415 27.4024 35.056 24.0322 37.7518 21.5473C40.4477 19.0625 44.104 17.6665 47.9165 17.6665H69.479C73.2915 17.6665 76.9478 19.0625 79.6437 21.5473C82.3395 24.0322 83.854 27.4024 83.854 30.9165V35.3332H33.5415V30.9165Z" stroke="#323131" stroke-width="2.875" stroke-linecap="round" stroke-linejoin="round"/>
<path d="M9.5835 55.2085L56.3406 65.9852C57.1035 66.1609 57.9016 66.1609 58.6645 65.9852L105.417 55.2085V83.9168C105.417 85.0882 104.912 86.2116 104.013 87.0399C103.115 87.8682 101.896 88.3335 100.625 88.3335H14.3752C13.1043 88.3335 11.8856 87.8682 10.9869 87.0399C10.0883 86.2116 9.5835 85.0882 9.5835 83.9168V55.2085Z" stroke="#323131" stroke-width="2.875" stroke-linecap="round" stroke-linejoin="round"/>
<path d="M105.417 59.6252V39.7502C105.417 38.5788 104.912 37.4554 104.013 36.6271C103.115 35.7988 101.896 35.3335 100.625 35.3335H14.3752C13.1043 35.3335 11.8856 35.7988 10.9869 36.6271C10.0883 37.4554 9.5835 38.5788 9.5835 39.7502V59.6252" stroke="#323131" stroke-width="2.875" stroke-linecap="round" stroke-linejoin="round"/>
<path d="M63.4894 50.7918C63.4894 52.256 62.8584 53.6603 61.7351 54.6956C60.6118 55.731 59.0884 56.3127 57.4998 56.3127C55.9113 56.3127 54.3878 55.731 53.2646 54.6956C52.1413 53.6603 51.5103 52.256 51.5103 50.7918C51.5103 49.3276 52.1413 47.9234 53.2646 46.888C54.3878 45.8527 55.9113 45.271 57.4998 45.271C59.0884 45.271 60.6118 45.8527 61.7351 46.888C62.8584 47.9234 63.4894 49.3276 63.4894 50.7918Z" fill="#323131"/>
</svg>
