<svg width="92" height="93" viewBox="0 0 92 93" fill="none" xmlns="http://www.w3.org/2000/svg">
<path d="M72.8335 8.16699H19.1668C18.1502 8.16699 17.1751 8.57086 16.4563 9.28975C15.7374 10.0086 15.3335 10.9837 15.3335 12.0003V81.0003C15.3335 82.017 15.7374 82.992 16.4563 83.7109C17.1751 84.4298 18.1502 84.8337 19.1668 84.8337H72.8335C73.8502 84.8337 74.8252 84.4298 75.5441 83.7109C76.263 82.992 76.6668 82.017 76.6668 81.0003V12.0003C76.6668 10.9837 76.263 10.0086 75.5441 9.28975C74.8252 8.57086 73.8502 8.16699 72.8335 8.16699Z" stroke="#323131" stroke-width="2.875" stroke-linecap="round" stroke-linejoin="round"/>
<path d="M32.5835 58H59.4168" stroke="#323131" stroke-width="2.875" stroke-linecap="round" stroke-linejoin="round"/>
<path d="M32.5835 69.5H46.0002" stroke="#323131" stroke-width="2.875" stroke-linecap="round" stroke-linejoin="round"/>
<path d="M57.5 25.417L42.1667 40.7503L34.5 33.0837" stroke="#323131" stroke-width="2.875" stroke-linecap="round" stroke-linejoin="round"/>
</svg>
