<svg width="70" height="70" viewBox="0 0 70 70" fill="none" xmlns="http://www.w3.org/2000/svg">
<path d="M20.3512 1.53027C21.0716 1.53074 21.7789 1.72372 22.3997 2.08924C23.0205 2.45476 23.5323 2.97954 23.8822 3.60927L28.824 12.511C29.1431 13.0854 29.3174 13.729 29.3318 14.3859C29.3462 15.0429 29.2002 15.6935 28.9065 16.2813L24.1462 25.8059C24.1462 25.8059 25.524 32.9009 31.299 38.6759C37.074 44.4509 44.1442 45.8039 44.1442 45.8039L53.6689 41.0436C54.2567 40.7499 54.9072 40.6039 55.5642 40.6183C56.2211 40.6327 56.8647 40.807 57.4391 41.1261L66.3656 46.0926C67.6485 46.8021 68.4446 48.1551 68.4446 49.6236V59.8743C68.4446 65.0924 63.5977 68.8668 58.6519 67.192C48.492 63.7683 32.7221 57.2384 22.7272 47.2435C12.7324 37.2528 6.2066 21.4829 2.77873 11.3271C1.11223 6.38127 4.88248 1.5344 10.1006 1.5344L20.3512 1.53027Z" stroke="#323131" stroke-width="2.875" stroke-linejoin="round"/>
</svg>
