<svg width="103" height="103" viewBox="0 0 103 103" fill="none" xmlns="http://www.w3.org/2000/svg">
<path d="M64.375 8.5835H17.1667C16.0284 8.5835 14.9368 9.03565 14.132 9.8405C13.3272 10.6453 12.875 11.7369 12.875 12.8752V90.1252C12.875 91.2634 13.3272 92.355 14.132 93.1598C14.9368 93.9647 16.0284 94.4168 17.1667 94.4168H64.375C65.5132 94.4168 66.6048 93.9647 67.4097 93.1598C68.2145 92.355 68.6667 91.2634 68.6667 90.1252V12.8752C68.6667 11.7369 68.2145 10.6453 67.4097 9.8405C66.6048 9.03565 65.5132 8.5835 64.375 8.5835Z" stroke="#323131" stroke-width="2.875" stroke-linecap="round" stroke-linejoin="round"/>
<path d="M85.8332 64.375H51.4998C49.2234 64.375 47.0402 65.2793 45.4305 66.889C43.8208 68.4987 42.9165 70.6819 42.9165 72.9583C42.9165 75.2348 43.8208 77.418 45.4305 79.0277C47.0402 80.6374 49.2234 81.5417 51.4998 81.5417H85.8332C88.1096 81.5417 90.2928 80.6374 91.9025 79.0277C93.5122 77.418 94.4165 75.2348 94.4165 72.9583C94.4165 70.6819 93.5122 68.4987 91.9025 66.889C90.2928 65.2793 88.1096 64.375 85.8332 64.375Z" stroke="#323131" stroke-width="2.875" stroke-linecap="round" stroke-linejoin="round"/>
<path d="M25.7502 30.0418C26.8884 30.0418 27.98 29.5897 28.7848 28.7848C29.5897 27.98 30.0418 26.8884 30.0418 25.7502C30.0418 24.6119 29.5897 23.5203 28.7848 22.7155C27.98 21.9107 26.8884 21.4585 25.7502 21.4585C24.6119 21.4585 23.5203 21.9107 22.7155 22.7155C21.9107 23.5203 21.4585 24.6119 21.4585 25.7502C21.4585 26.8884 21.9107 27.98 22.7155 28.7848C23.5203 29.5897 24.6119 30.0418 25.7502 30.0418Z" fill="#323131"/>
<path d="M25.7502 42.9168C26.8884 42.9168 27.98 42.4647 28.7848 41.6598C29.5897 40.855 30.0418 39.7634 30.0418 38.6252C30.0418 37.4869 29.5897 36.3953 28.7848 35.5905C27.98 34.7857 26.8884 34.3335 25.7502 34.3335C24.6119 34.3335 23.5203 34.7857 22.7155 35.5905C21.9107 36.3953 21.4585 37.4869 21.4585 38.6252C21.4585 39.7634 21.9107 40.855 22.7155 41.6598C23.5203 42.4647 24.6119 42.9168 25.7502 42.9168Z" fill="#323131"/>
<path d="M25.7502 55.7918C26.8884 55.7918 27.98 55.3397 28.7848 54.5348C29.5897 53.73 30.0418 52.6384 30.0418 51.5002C30.0418 50.3619 29.5897 49.2703 28.7848 48.4655C27.98 47.6607 26.8884 47.2085 25.7502 47.2085C24.6119 47.2085 23.5203 47.6607 22.7155 48.4655C21.9107 49.2703 21.4585 50.3619 21.4585 51.5002C21.4585 52.6384 21.9107 53.73 22.7155 54.5348C23.5203 55.3397 24.6119 55.7918 25.7502 55.7918Z" fill="#323131"/>
<path d="M40.7707 30.0418C41.9089 30.0418 43.0005 29.5897 43.8053 28.7848C44.6102 27.98 45.0623 26.8884 45.0623 25.7502C45.0623 24.6119 44.6102 23.5203 43.8053 22.7155C43.0005 21.9107 41.9089 21.4585 40.7707 21.4585C39.6324 21.4585 38.5408 21.9107 37.736 22.7155C36.9312 23.5203 36.479 24.6119 36.479 25.7502C36.479 26.8884 36.9312 27.98 37.736 28.7848C38.5408 29.5897 39.6324 30.0418 40.7707 30.0418Z" fill="#323131"/>
<path d="M40.7707 42.9168C41.9089 42.9168 43.0005 42.4647 43.8053 41.6598C44.6102 40.855 45.0623 39.7634 45.0623 38.6252C45.0623 37.4869 44.6102 36.3953 43.8053 35.5905C43.0005 34.7857 41.9089 34.3335 40.7707 34.3335C39.6324 34.3335 38.5408 34.7857 37.736 35.5905C36.9312 36.3953 36.479 37.4869 36.479 38.6252C36.479 39.7634 36.9312 40.855 37.736 41.6598C38.5408 42.4647 39.6324 42.9168 40.7707 42.9168Z" fill="#323131"/>
<path d="M40.7707 55.7918C41.9089 55.7918 43.0005 55.3397 43.8053 54.5348C44.6102 53.73 45.0623 52.6384 45.0623 51.5002C45.0623 50.3619 44.6102 49.2703 43.8053 48.4655C43.0005 47.6607 41.9089 47.2085 40.7707 47.2085C39.6324 47.2085 38.5408 47.6607 37.736 48.4655C36.9312 49.2703 36.479 50.3619 36.479 51.5002C36.479 52.6384 36.9312 53.73 37.736 54.5348C38.5408 55.3397 39.6324 55.7918 40.7707 55.7918Z" fill="#323131"/>
<path d="M55.7917 30.0418C56.9299 30.0418 58.0215 29.5897 58.8263 28.7848C59.6312 27.98 60.0833 26.8884 60.0833 25.7502C60.0833 24.6119 59.6312 23.5203 58.8263 22.7155C58.0215 21.9107 56.9299 21.4585 55.7917 21.4585C54.6534 21.4585 53.5618 21.9107 52.757 22.7155C51.9522 23.5203 51.5 24.6119 51.5 25.7502C51.5 26.8884 51.9522 27.98 52.757 28.7848C53.5618 29.5897 54.6534 30.0418 55.7917 30.0418Z" fill="#323131"/>
<path d="M55.7917 42.9168C56.9299 42.9168 58.0215 42.4647 58.8263 41.6598C59.6312 40.855 60.0833 39.7634 60.0833 38.6252C60.0833 37.4869 59.6312 36.3953 58.8263 35.5905C58.0215 34.7857 56.9299 34.3335 55.7917 34.3335C54.6534 34.3335 53.5618 34.7857 52.757 35.5905C51.9522 36.3953 51.5 37.4869 51.5 38.6252C51.5 39.7634 51.9522 40.855 52.757 41.6598C53.5618 42.4647 54.6534 42.9168 55.7917 42.9168Z" fill="#323131"/>
<path d="M55.7917 55.7918C56.9299 55.7918 58.0215 55.3397 58.8263 54.5348C59.6312 53.73 60.0833 52.6384 60.0833 51.5002C60.0833 50.3619 59.6312 49.2703 58.8263 48.4655C58.0215 47.6607 56.9299 47.2085 55.7917 47.2085C54.6534 47.2085 53.5618 47.6607 52.757 48.4655C51.9522 49.2703 51.5 50.3619 51.5 51.5002C51.5 52.6384 51.9522 53.73 52.757 54.5348C53.5618 55.3397 54.6534 55.7918 55.7917 55.7918Z" fill="#323131"/>
</svg>
